<svg width="24" height="28" viewBox="0 0 24 28" fill="none" xmlns="http://www.w3.org/2000/svg">
<path d="M20.1314 14.7964C20.1192 12.5023 21.1335 10.7707 23.1867 9.49548C22.0379 7.81392 20.3025 6.88875 18.0111 6.70747C15.8418 6.53244 13.471 8.00146 12.6033 8.00146C11.6867 8.00146 9.58466 6.76998 7.93482 6.76998C4.52515 6.82624 0.901611 9.55174 0.901611 15.0965C0.901611 16.7343 1.19492 18.4263 1.78153 20.1724C2.56367 22.4666 5.38673 28.0926 8.332 27.9988C9.87186 27.9613 10.9595 26.8799 12.9638 26.8799C14.9069 26.8799 15.9152 27.9988 17.6322 27.9988C20.6019 27.9551 23.1561 22.8417 23.9016 20.5412C19.9176 18.6221 20.1314 14.9152 20.1314 14.7964ZM16.6729 4.53207C18.341 2.50671 18.1883 0.662621 18.1394 0C16.6668 0.0875159 14.9619 1.02519 13.9903 2.18165C12.921 3.41937 12.2916 4.9509 12.4261 6.67621C14.0209 6.80124 15.4752 5.96358 16.6729 4.53207Z" fill="black"/>
</svg>
