<svg xmlns="http://www.w3.org/2000/svg" width="76" height="76" viewBox="0 0 76 76" fill="none">
  <circle cx="37.6422" cy="38.2846" r="37.5422" fill="#C3FFB9"/>
  <path d="M51.8427 44.9185V23.9235C51.8427 23.0924 51.1741 22.4239 50.3431 22.4239H29.848C26.5363 22.4239 23.8494 25.1107 23.8494 28.4224V48.4176C23.8494 51.7294 26.5363 54.4162 29.848 54.4162H50.3431C51.1741 54.4162 51.8427 53.7476 51.8427 52.9166V51.9168C51.8427 51.4482 51.624 51.0233 51.2866 50.7483C51.0241 49.7861 51.0241 47.043 51.2866 46.0807C51.624 45.812 51.8427 45.3871 51.8427 44.9185ZM31.8475 30.7969C31.8475 30.5907 32.0162 30.4219 32.2224 30.4219H45.4692C45.6754 30.4219 45.8441 30.5907 45.8441 30.7969V32.0466C45.8441 32.2528 45.6754 32.4215 45.4692 32.4215H32.2224C32.0162 32.4215 31.8475 32.2528 31.8475 32.0466V30.7969ZM31.8475 34.7959C31.8475 34.5897 32.0162 34.421 32.2224 34.421H45.4692C45.6754 34.421 45.8441 34.5897 45.8441 34.7959V36.0456C45.8441 36.2518 45.6754 36.4205 45.4692 36.4205H32.2224C32.0162 36.4205 31.8475 36.2518 31.8475 36.0456V34.7959ZM47.6812 50.4172H29.848C28.742 50.4172 27.8484 49.5236 27.8484 48.4176C27.8484 47.3179 28.7482 46.4181 29.848 46.4181H47.6812C47.5625 47.4866 47.5625 49.3487 47.6812 50.4172Z" fill="#52A944"/>
</svg>