<svg width="29" height="29" viewBox="0 0 29 29" fill="none" xmlns="http://www.w3.org/2000/svg">
<path d="M28.8031 14.8109C28.8031 13.6598 28.7078 12.8198 28.5016 11.9487H15.0889V17.1442H22.9618C22.8031 18.4354 21.946 20.3798 20.0412 21.6864L20.0145 21.8604L24.2554 25.08L24.5492 25.1087C27.2475 22.6665 28.8031 19.0731 28.8031 14.8109Z" fill="#4285F4"/>
<path d="M15.0881 28.5C18.9451 28.5 22.1832 27.2555 24.5483 25.1089L20.0404 21.6865C18.8341 22.511 17.215 23.0866 15.0881 23.0866C11.3103 23.0866 8.10401 20.6444 6.96105 17.2688L6.79352 17.2827L2.38384 20.6272L2.32617 20.7843C4.67534 25.3577 9.50073 28.5 15.0881 28.5Z" fill="#34A853"/>
<path d="M6.96188 17.2688C6.6603 16.3977 6.48577 15.4643 6.48577 14.4999C6.48577 13.5354 6.6603 12.6021 6.94602 11.731L6.93803 11.5455L2.47308 8.14734L2.32699 8.21544C1.35878 10.1132 0.803223 12.2444 0.803223 14.4999C0.803223 16.7555 1.35878 18.8865 2.32699 20.7843L6.96188 17.2688Z" fill="#FBBC05"/>
<path d="M15.0881 5.9133C17.7706 5.9133 19.5801 7.04885 20.6119 7.9978L24.6437 4.14C22.1675 1.88445 18.9452 0.5 15.0881 0.5C9.50077 0.5 4.67536 3.6422 2.32617 8.21549L6.94521 11.7311C8.10404 8.35555 11.3104 5.9133 15.0881 5.9133Z" fill="#EB4335"/>
</svg>
