<svg width="29" height="29" viewBox="0 0 29 29" fill="none" xmlns="http://www.w3.org/2000/svg">
<path fill-rule="evenodd" clip-rule="evenodd" d="M21.8032 21.4869H18.9026V16.9474C18.9026 15.865 18.8833 14.4729 17.395 14.4729C15.8856 14.4729 15.6555 15.6524 15.6555 16.8704V21.4869H12.7575V12.1524H15.5382V13.429H15.5785C15.9652 12.6949 16.912 11.9205 18.3233 11.9205C21.2607 11.9205 21.8032 13.8534 21.8032 16.3673V21.4869ZM9.48672 10.8775C8.55485 10.8775 7.80322 10.1233 7.80322 9.19488C7.80322 8.2665 8.55485 7.51225 9.48672 7.51225C10.4142 7.51225 11.1676 8.2665 11.1676 9.19488C11.1676 10.1233 10.4142 10.8775 9.48672 10.8775ZM10.9375 21.4869H8.03335V12.1524H10.9375V21.4869ZM14.8032 0.5C7.07085 0.5 0.803223 6.76762 0.803223 14.5C0.803223 22.2315 7.07085 28.5 14.8032 28.5C22.5356 28.5 28.8032 22.2315 28.8032 14.5C28.8032 6.76762 22.5356 0.5 14.8032 0.5Z" fill="#2E78B6"/>
</svg>
