<svg width="21" height="21" viewBox="0 0 21 21" fill="none" xmlns="http://www.w3.org/2000/svg">
<path fill-rule="evenodd" clip-rule="evenodd" d="M2.97095 9.59953C2.97095 5.73354 6.10495 2.59953 9.97095 2.59953C13.8369 2.59953 16.9709 5.73354 16.9709 9.59953C16.9709 11.4855 16.2251 13.1972 15.0123 14.4559C14.9781 14.4822 14.9452 14.5111 14.9138 14.5424C14.8825 14.5738 14.8537 14.6067 14.8273 14.6409C13.5686 15.8537 11.8569 16.5995 9.97095 16.5995C6.10495 16.5995 2.97095 13.4655 2.97095 9.59953ZM15.5886 16.6314C14.049 17.8631 12.096 18.5995 9.97095 18.5995C5.00038 18.5995 0.970947 14.5701 0.970947 9.59953C0.970947 4.62897 5.00038 0.599533 9.97095 0.599533C14.9415 0.599533 18.9709 4.62897 18.9709 9.59953C18.9709 11.7245 18.2345 13.6775 17.0028 15.2172L20.6781 18.8924C21.0686 19.283 21.0686 19.9161 20.6781 20.3066C20.2875 20.6972 19.6544 20.6972 19.2638 20.3066L15.5886 16.6314Z" fill="#30387D" fill-opacity="0.52"/>
</svg>
